<svg xmlns="http://www.w3.org/2000/svg" width="500" height="77.748" viewBox="0 0 500 77.748"><path fill="#F47920" d="M16.086 40.214h5.362v21.448h-5.362z"/><linearGradient id="a" gradientUnits="userSpaceOnUse" x1="8.043" y1="37.534" x2="29.491" y2="16.086"><stop offset="0" stop-color="gray"/><stop offset=".102" stop-color="#989898"/><stop offset=".285" stop-color="#bdbdbd"/><stop offset=".468" stop-color="#dadada"/><stop offset=".65" stop-color="#eee"/><stop offset=".828" stop-color="#fbfbfb"/><stop offset="1" stop-color="#fff"/></linearGradient><path fill="url(#a)" d="M0 24.129h37.534v5.362H0z"/><path fill="#F47920" d="M48.257 24.129h5.362v37.534h-5.362z"/><linearGradient id="b" gradientUnits="userSpaceOnUse" x1="71.765" y1="56.66" x2="89.358" y2="26.188"><stop offset="0" stop-color="gray"/><stop offset=".102" stop-color="#989898"/><stop offset=".285" stop-color="#bdbdbd"/><stop offset=".468" stop-color="#dadada"/><stop offset=".65" stop-color="#eee"/><stop offset=".828" stop-color="#fbfbfb"/><stop offset="1" stop-color="#fff"/></linearGradient><path fill="url(#b)" d="M80.429 24.129v16.085H64.344v5.363h16.085v16.086h5.363V24.129z"/><path fill="#F47920" d="M310.993 40.214h5.362v21.448h-5.362z"/><linearGradient id="c" gradientUnits="userSpaceOnUse" x1="419.028" y1="45.97" x2="437.67" y2="13.682"><stop offset="0" stop-color="gray"/><stop offset=".102" stop-color="#989898"/><stop offset=".285" stop-color="#bdbdbd"/><stop offset=".468" stop-color="#dadada"/><stop offset=".65" stop-color="#eee"/><stop offset=".828" stop-color="#fbfbfb"/><stop offset="1" stop-color="#fff"/></linearGradient><path fill="url(#c)" d="M455.766 24.129h-6.434l-17.695 21.355-17.695-21.355h-6.434l24.129 29.121z"/><path fill="#F47920" d="M407.508 40.214h5.362v21.448h-5.362zm42.895 0h5.362v21.448h-5.362z"/><linearGradient id="d" gradientUnits="userSpaceOnUse" x1="472.925" y1="57.373" x2="502.415" y2="27.883"><stop offset="0" stop-color="gray"/><stop offset=".102" stop-color="#989898"/><stop offset=".285" stop-color="#bdbdbd"/><stop offset=".468" stop-color="#dadada"/><stop offset=".65" stop-color="#eee"/><stop offset=".828" stop-color="#fbfbfb"/><stop offset="1" stop-color="#fff"/></linearGradient><path fill="url(#d)" d="M498.661 24.129h-6.433l-15.014 18.23v19.304h5.362V43.542z"/><linearGradient id="e" gradientUnits="userSpaceOnUse" x1="324.449" y1="52.096" x2="342.578" y2="20.695"><stop offset="0" stop-color="gray"/><stop offset=".102" stop-color="#989898"/><stop offset=".285" stop-color="#bdbdbd"/><stop offset=".468" stop-color="#dadada"/><stop offset=".65" stop-color="#eee"/><stop offset=".828" stop-color="#fbfbfb"/><stop offset="1" stop-color="#fff"/></linearGradient><path fill="url(#e)" d="M343.165 24.129V54.96L318.5 24.129h-7.507l30.027 37.534h7.506V24.129z"/><linearGradient id="f" gradientUnits="userSpaceOnUse" x1="104.558" y1="37.534" x2="126.006" y2="16.086"><stop offset="0" stop-color="gray"/><stop offset=".102" stop-color="#989898"/><stop offset=".285" stop-color="#bdbdbd"/><stop offset=".468" stop-color="#dadada"/><stop offset=".65" stop-color="#eee"/><stop offset=".828" stop-color="#fbfbfb"/><stop offset="1" stop-color="#fff"/></linearGradient><path fill="url(#f)" d="M96.515 24.129h37.534v5.362H96.515z"/><linearGradient id="g" gradientUnits="userSpaceOnUse" x1="116.624" y1="65.685" x2="130.029" y2="52.28"><stop offset="0" stop-color="gray"/><stop offset=".102" stop-color="#989898"/><stop offset=".285" stop-color="#bdbdbd"/><stop offset=".468" stop-color="#dadada"/><stop offset=".65" stop-color="#eee"/><stop offset=".828" stop-color="#fbfbfb"/><stop offset="1" stop-color="#fff"/></linearGradient><path fill="url(#g)" d="M112.601 56.301h21.448v5.362h-21.448z"/><path fill="#F47920" d="M134.049 40.214H96.515v21.449h5.362V45.577h32.172z"/><linearGradient id="h" gradientUnits="userSpaceOnUse" x1="270.779" y1="37.534" x2="292.226" y2="16.086"><stop offset="0" stop-color="gray"/><stop offset=".102" stop-color="#989898"/><stop offset=".285" stop-color="#bdbdbd"/><stop offset=".468" stop-color="#dadada"/><stop offset=".65" stop-color="#eee"/><stop offset=".828" stop-color="#fbfbfb"/><stop offset="1" stop-color="#fff"/></linearGradient><path fill="url(#h)" d="M262.736 24.129h37.533v5.362h-37.533z"/><linearGradient id="i" gradientUnits="userSpaceOnUse" x1="282.844" y1="65.685" x2="296.248" y2="52.28"><stop offset="0" stop-color="gray"/><stop offset=".102" stop-color="#989898"/><stop offset=".285" stop-color="#bdbdbd"/><stop offset=".468" stop-color="#dadada"/><stop offset=".65" stop-color="#eee"/><stop offset=".828" stop-color="#fbfbfb"/><stop offset="1" stop-color="#fff"/></linearGradient><path fill="url(#i)" d="M278.822 56.301h21.447v5.362h-21.447z"/><path fill="#F47920" d="M300.269 40.214h-37.533v21.449h5.362V45.577h32.171z"/><linearGradient id="j" gradientUnits="userSpaceOnUse" x1="367.295" y1="37.534" x2="388.742" y2="16.087"><stop offset="0" stop-color="gray"/><stop offset=".102" stop-color="#989898"/><stop offset=".285" stop-color="#bdbdbd"/><stop offset=".468" stop-color="#dadada"/><stop offset=".65" stop-color="#eee"/><stop offset=".828" stop-color="#fbfbfb"/><stop offset="1" stop-color="#fff"/></linearGradient><path fill="url(#j)" d="M359.251 24.129h37.533v5.362h-37.533z"/><linearGradient id="k" gradientUnits="userSpaceOnUse" x1="379.358" y1="65.684" x2="392.763" y2="52.279"><stop offset="0" stop-color="gray"/><stop offset=".102" stop-color="#989898"/><stop offset=".285" stop-color="#bdbdbd"/><stop offset=".468" stop-color="#dadada"/><stop offset=".65" stop-color="#eee"/><stop offset=".828" stop-color="#fbfbfb"/><stop offset="1" stop-color="#fff"/></linearGradient><path fill="url(#k)" d="M375.337 56.301h21.447v5.362h-21.447z"/><path fill="#F47920" d="M396.784 40.214h-37.533v21.449h5.361V45.577h32.172zm79.663-5.361l-8.885-10.724h-6.434l8.886 10.724z"/><linearGradient id="l" gradientUnits="userSpaceOnUse" x1="230.564" y1="67.024" x2="230.564" y2="56.301"><stop offset="0" stop-color="gray"/><stop offset=".102" stop-color="#989898"/><stop offset=".285" stop-color="#bdbdbd"/><stop offset=".468" stop-color="#dadada"/><stop offset=".65" stop-color="#eee"/><stop offset=".828" stop-color="#fbfbfb"/><stop offset="1" stop-color="#fff"/></linearGradient><path fill="url(#l)" d="M235.926 56.301l-10.724 5.362v5.361l10.724-5.361z"/><linearGradient id="m" gradientUnits="userSpaceOnUse" x1="225.203" y1="58.982" x2="207.776" y2="41.556"><stop offset="0" stop-color="gray"/><stop offset=".337" stop-color="#b6b6b6"/><stop offset=".628" stop-color="#dedede"/><stop offset=".859" stop-color="#f6f6f6"/><stop offset="1" stop-color="#fff"/></linearGradient><path fill="url(#m)" d="M235.926 29.491l-32.172 16.086v32.171l5.362-2.681v-26.81l26.81-13.404z"/><linearGradient id="n" gradientUnits="userSpaceOnUse" x1="160.858" y1="12.065" x2="235.926" y2="12.065"><stop offset="0" stop-color="gray"/><stop offset=".065" stop-color="#979797"/><stop offset=".169" stop-color="#b7b7b7"/><stop offset=".282" stop-color="#d1d1d1"/><stop offset=".406" stop-color="#e6e6e6"/><stop offset=".547" stop-color="#f4f4f4"/><stop offset=".717" stop-color="#fcfcfc"/><stop offset="1" stop-color="#fff"/></linearGradient><path fill="url(#n)" d="M198.392 18.767L160.858 0v5.362l37.534 18.767 37.534-18.767V0z"/><path fill="#F47920" d="M198.392 32.172l-37.534-18.767v5.362l37.534 18.767 37.534-18.767v-5.362z"/><linearGradient id="o" gradientUnits="userSpaceOnUse" x1="163.54" y1="64.344" x2="168.902" y2="58.982"><stop offset="0" stop-color="gray"/><stop offset="1" stop-color="#fff"/></linearGradient><path fill="url(#o)" d="M160.858 56.301l10.725 5.362v5.361l-10.725-5.361z"/><linearGradient id="p" gradientUnits="userSpaceOnUse" x1="171.583" y1="58.982" x2="189.009" y2="41.555"><stop offset="0" stop-color="gray"/><stop offset=".337" stop-color="#b6b6b6"/><stop offset=".628" stop-color="#dedede"/><stop offset=".859" stop-color="#f6f6f6"/><stop offset="1" stop-color="#fff"/></linearGradient><path fill="url(#p)" d="M160.858 29.491v5.362l26.81 13.404v26.81l5.362 2.681V45.577z"/><path fill="#F47920" d="M160.858 42.896v5.361l16.086 8.044v13.404l5.362 2.682V53.619zm75.068 0v5.361l-16.086 8.044v13.404l-5.362 2.682V53.619z"/></svg>